<mxfile host="app.diagrams.net" agent="Mozilla/5.0 (X11; Ubuntu; Linux x86_64; rv:126.0) Gecko/20100101 Firefox/126.0" version="24.7.6">
  <diagram name="Page-1" id="ktjdggWJkOubaZjnD8Sw">
    <mxGraphModel dx="2474" dy="1523" grid="0" gridSize="10" guides="1" tooltips="1" connect="1" arrows="1" fold="1" page="0" pageScale="1" pageWidth="850" pageHeight="1100" background="#f6f5f4" math="0" shadow="0">
      <root>
        <mxCell id="0" />
        <mxCell id="1" parent="0" />
        <mxCell id="MCb2UWZOl3pcXyE4nuWZ-1" value="1. Sukupuoli" style="rounded=1;whiteSpace=wrap;html=1;fillColor=#ffcd28;gradientColor=#ffa500;strokeColor=#d79b00;sketch=1;curveFitting=1;jiggle=2;" parent="1" vertex="1">
          <mxGeometry x="332" y="113" width="119" height="60" as="geometry" />
        </mxCell>
        <mxCell id="MCb2UWZOl3pcXyE4nuWZ-2" value="2. Ikä" style="rounded=1;whiteSpace=wrap;html=1;fillColor=#f8cecc;strokeColor=#b85450;gradientColor=#ea6b66;flipV=0;flipH=0;sketch=1;curveFitting=1;jiggle=2;" parent="1" vertex="1">
          <mxGeometry x="332" y="217" width="120" height="60" as="geometry" />
        </mxCell>
        <mxCell id="MCb2UWZOl3pcXyE4nuWZ-3" value="5. BMI" style="rounded=1;whiteSpace=wrap;html=1;fillColor=#d5e8d4;gradientColor=#97d077;strokeColor=#82b366;sketch=1;curveFitting=1;jiggle=2;" parent="1" vertex="1">
          <mxGeometry x="324" y="556" width="120" height="60" as="geometry" />
        </mxCell>
        <mxCell id="MCb2UWZOl3pcXyE4nuWZ-4" value="3. Pituus" style="rounded=1;whiteSpace=wrap;html=1;fillColor=#dae8fc;gradientColor=#7ea6e0;strokeColor=#6c8ebf;sketch=1;curveFitting=1;jiggle=2;" parent="1" vertex="1">
          <mxGeometry x="327" y="320" width="120" height="60" as="geometry" />
        </mxCell>
        <mxCell id="MCb2UWZOl3pcXyE4nuWZ-5" value="4. Paino" style="rounded=1;whiteSpace=wrap;html=1;fillColor=#e6d0de;gradientColor=#d5739d;strokeColor=#996185;sketch=1;curveFitting=1;jiggle=2;" parent="1" vertex="1">
          <mxGeometry x="327" y="431" width="120" height="60" as="geometry" />
        </mxCell>
        <mxCell id="MCb2UWZOl3pcXyE4nuWZ-6" value="7. Rasvaprosentti" style="rounded=1;whiteSpace=wrap;html=1;sketch=1;curveFitting=1;jiggle=2;fillColor=#fad9d5;strokeColor=#ae4132;" parent="1" vertex="1">
          <mxGeometry x="65" y="282" width="120" height="60" as="geometry" />
        </mxCell>
        <mxCell id="MCb2UWZOl3pcXyE4nuWZ-7" value="8. Rasvaton massa" style="rounded=1;whiteSpace=wrap;html=1;sketch=1;curveFitting=1;jiggle=2;fillColor=#fad9d5;strokeColor=#ae4132;" parent="1" vertex="1">
          <mxGeometry x="70" y="417" width="120" height="60" as="geometry" />
        </mxCell>
        <mxCell id="MCb2UWZOl3pcXyE4nuWZ-8" value="9. Lihasmassa" style="rounded=1;whiteSpace=wrap;html=1;sketch=1;curveFitting=1;jiggle=2;fillColor=#fad9d5;strokeColor=#ae4132;" parent="1" vertex="1">
          <mxGeometry x="102" y="531" width="120" height="60" as="geometry" />
        </mxCell>
        <mxCell id="MCb2UWZOl3pcXyE4nuWZ-9" value="10. Kävelymatka" style="rounded=1;whiteSpace=wrap;html=1;sketch=1;curveFitting=1;jiggle=2;fillColor=#b1ddf0;strokeColor=#10739e;" parent="1" vertex="1">
          <mxGeometry x="549" y="185" width="120" height="60" as="geometry" />
        </mxCell>
        <mxCell id="MCb2UWZOl3pcXyE4nuWZ-10" value="11.Syke testin lopussa" style="rounded=1;whiteSpace=wrap;html=1;sketch=1;curveFitting=1;jiggle=2;fillColor=#b1ddf0;strokeColor=#10739e;" parent="1" vertex="1">
          <mxGeometry x="559" y="282" width="120" height="60" as="geometry" />
        </mxCell>
        <mxCell id="MCb2UWZOl3pcXyE4nuWZ-11" value="12. Vo2max" style="rounded=1;whiteSpace=wrap;html=1;sketch=1;curveFitting=1;jiggle=2;fillColor=#b1ddf0;strokeColor=#10739e;" parent="1" vertex="1">
          <mxGeometry x="573" y="377" width="120" height="60" as="geometry" />
        </mxCell>
        <mxCell id="MCb2UWZOl3pcXyE4nuWZ-14" value="13. Lihasvoima (toistot)" style="rounded=1;whiteSpace=wrap;html=1;sketch=1;curveFitting=1;jiggle=2;fillColor=#b1ddf0;strokeColor=#10739e;" parent="1" vertex="1">
          <mxGeometry x="556" y="491" width="120" height="60" as="geometry" />
        </mxCell>
        <mxCell id="MCb2UWZOl3pcXyE4nuWZ-27" value="" style="endArrow=classic;html=1;rounded=0;exitX=1;exitY=0.5;exitDx=0;exitDy=0;entryX=0;entryY=0.25;entryDx=0;entryDy=0;fillColor=#ffcd28;strokeColor=#d79b00;sketch=1;curveFitting=1;jiggle=2;gradientColor=#ffa500;" parent="1" source="MCb2UWZOl3pcXyE4nuWZ-1" target="MCb2UWZOl3pcXyE4nuWZ-9" edge="1">
          <mxGeometry width="50" height="50" relative="1" as="geometry">
            <mxPoint x="400" y="400" as="sourcePoint" />
            <mxPoint x="450" y="350" as="targetPoint" />
          </mxGeometry>
        </mxCell>
        <mxCell id="MCb2UWZOl3pcXyE4nuWZ-28" value="" style="endArrow=classic;html=1;rounded=0;exitX=1;exitY=0.5;exitDx=0;exitDy=0;entryX=0;entryY=0.25;entryDx=0;entryDy=0;fillColor=#ffcd28;gradientColor=#ffa500;strokeColor=#d79b00;sketch=1;curveFitting=1;jiggle=2;" parent="1" source="MCb2UWZOl3pcXyE4nuWZ-1" target="MCb2UWZOl3pcXyE4nuWZ-11" edge="1">
          <mxGeometry width="50" height="50" relative="1" as="geometry">
            <mxPoint x="470" y="170" as="sourcePoint" />
            <mxPoint x="610" y="205" as="targetPoint" />
          </mxGeometry>
        </mxCell>
        <mxCell id="MCb2UWZOl3pcXyE4nuWZ-29" value="" style="endArrow=classic;html=1;rounded=0;fillColor=#ffcd28;gradientColor=#ffa500;strokeColor=#d79b00;entryX=1;entryY=0.25;entryDx=0;entryDy=0;exitX=0;exitY=0.5;exitDx=0;exitDy=0;sketch=1;curveFitting=1;jiggle=2;" parent="1" source="MCb2UWZOl3pcXyE4nuWZ-1" target="MCb2UWZOl3pcXyE4nuWZ-6" edge="1">
          <mxGeometry width="50" height="50" relative="1" as="geometry">
            <mxPoint x="340" y="160" as="sourcePoint" />
            <mxPoint x="470" y="240" as="targetPoint" />
          </mxGeometry>
        </mxCell>
        <mxCell id="MCb2UWZOl3pcXyE4nuWZ-30" value="" style="endArrow=classic;html=1;rounded=0;fillColor=#ffcd28;gradientColor=#ffa500;strokeColor=#d79b00;entryX=1;entryY=0.5;entryDx=0;entryDy=0;exitX=0;exitY=0.5;exitDx=0;exitDy=0;sketch=1;curveFitting=1;jiggle=2;" parent="1" source="MCb2UWZOl3pcXyE4nuWZ-1" target="MCb2UWZOl3pcXyE4nuWZ-8" edge="1">
          <mxGeometry width="50" height="50" relative="1" as="geometry">
            <mxPoint x="340" y="160" as="sourcePoint" />
            <mxPoint x="170" y="260" as="targetPoint" />
          </mxGeometry>
        </mxCell>
        <mxCell id="MCb2UWZOl3pcXyE4nuWZ-33" value="" style="endArrow=classic;html=1;rounded=0;exitX=0;exitY=0.25;exitDx=0;exitDy=0;fillColor=#ffcd28;gradientColor=#ffa500;strokeColor=#d79b00;sketch=1;curveFitting=1;jiggle=2;" parent="1" source="MCb2UWZOl3pcXyE4nuWZ-1" target="MCb2UWZOl3pcXyE4nuWZ-4" edge="1">
          <mxGeometry width="50" height="50" relative="1" as="geometry">
            <mxPoint x="340" y="170" as="sourcePoint" />
            <mxPoint x="320" y="450" as="targetPoint" />
            <Array as="points">
              <mxPoint x="312" y="352" />
            </Array>
          </mxGeometry>
        </mxCell>
        <mxCell id="MCb2UWZOl3pcXyE4nuWZ-34" value="" style="endArrow=classic;html=1;rounded=0;exitX=1;exitY=0.5;exitDx=0;exitDy=0;entryX=0.008;entryY=0.4;entryDx=0;entryDy=0;entryPerimeter=0;fillColor=#f8cecc;gradientColor=#ea6b66;strokeColor=#b85450;sketch=1;curveFitting=1;jiggle=2;" parent="1" source="MCb2UWZOl3pcXyE4nuWZ-2" target="MCb2UWZOl3pcXyE4nuWZ-9" edge="1">
          <mxGeometry width="50" height="50" relative="1" as="geometry">
            <mxPoint x="400" y="400" as="sourcePoint" />
            <mxPoint x="450" y="350" as="targetPoint" />
          </mxGeometry>
        </mxCell>
        <mxCell id="MCb2UWZOl3pcXyE4nuWZ-35" value="" style="endArrow=classic;html=1;rounded=0;exitX=1;exitY=0.5;exitDx=0;exitDy=0;fillColor=#f8cecc;gradientColor=#ea6b66;strokeColor=#b85450;sketch=1;curveFitting=1;jiggle=2;" parent="1" source="MCb2UWZOl3pcXyE4nuWZ-2" target="MCb2UWZOl3pcXyE4nuWZ-10" edge="1">
          <mxGeometry width="50" height="50" relative="1" as="geometry">
            <mxPoint x="470" y="320" as="sourcePoint" />
            <mxPoint x="611" y="214" as="targetPoint" />
          </mxGeometry>
        </mxCell>
        <mxCell id="MCb2UWZOl3pcXyE4nuWZ-36" value="" style="endArrow=classic;html=1;rounded=0;fillColor=#f8cecc;gradientColor=#ea6b66;strokeColor=#b85450;entryX=0;entryY=0.5;entryDx=0;entryDy=0;exitX=1;exitY=0.5;exitDx=0;exitDy=0;sketch=1;curveFitting=1;jiggle=2;" parent="1" source="MCb2UWZOl3pcXyE4nuWZ-2" target="MCb2UWZOl3pcXyE4nuWZ-11" edge="1">
          <mxGeometry width="50" height="50" relative="1" as="geometry">
            <mxPoint x="460" y="310" as="sourcePoint" />
            <mxPoint x="610" y="348" as="targetPoint" />
          </mxGeometry>
        </mxCell>
        <mxCell id="MCb2UWZOl3pcXyE4nuWZ-37" value="" style="endArrow=classic;html=1;rounded=0;fillColor=#f8cecc;gradientColor=#ea6b66;strokeColor=#b85450;entryX=1;entryY=0.5;entryDx=0;entryDy=0;exitX=0;exitY=0.5;exitDx=0;exitDy=0;sketch=1;curveFitting=1;jiggle=2;" parent="1" source="MCb2UWZOl3pcXyE4nuWZ-2" target="MCb2UWZOl3pcXyE4nuWZ-8" edge="1">
          <mxGeometry width="50" height="50" relative="1" as="geometry">
            <mxPoint x="470" y="320" as="sourcePoint" />
            <mxPoint x="610" y="530" as="targetPoint" />
          </mxGeometry>
        </mxCell>
        <mxCell id="MCb2UWZOl3pcXyE4nuWZ-38" value="" style="endArrow=classic;html=1;rounded=0;fillColor=#f8cecc;gradientColor=#ea6b66;strokeColor=#b85450;entryX=0.983;entryY=0.4;entryDx=0;entryDy=0;entryPerimeter=0;sketch=1;curveFitting=1;jiggle=2;exitX=0;exitY=0.5;exitDx=0;exitDy=0;" parent="1" target="MCb2UWZOl3pcXyE4nuWZ-6" edge="1" source="MCb2UWZOl3pcXyE4nuWZ-2">
          <mxGeometry width="50" height="50" relative="1" as="geometry">
            <mxPoint x="340" y="310" as="sourcePoint" />
            <mxPoint x="210" y="350" as="targetPoint" />
          </mxGeometry>
        </mxCell>
        <mxCell id="MCb2UWZOl3pcXyE4nuWZ-39" value="" style="endArrow=classic;html=1;rounded=0;entryX=0;entryY=0.5;entryDx=0;entryDy=0;exitX=1;exitY=0.5;exitDx=0;exitDy=0;fillColor=#dae8fc;gradientColor=#7ea6e0;strokeColor=#6c8ebf;sketch=1;curveFitting=1;jiggle=2;" parent="1" source="MCb2UWZOl3pcXyE4nuWZ-4" target="MCb2UWZOl3pcXyE4nuWZ-9" edge="1">
          <mxGeometry width="50" height="50" relative="1" as="geometry">
            <mxPoint x="470" y="450" as="sourcePoint" />
            <mxPoint x="450" y="350" as="targetPoint" />
          </mxGeometry>
        </mxCell>
        <mxCell id="MCb2UWZOl3pcXyE4nuWZ-40" value="" style="endArrow=classic;html=1;rounded=0;entryX=-0.017;entryY=0.617;entryDx=0;entryDy=0;exitX=1;exitY=0.5;exitDx=0;exitDy=0;entryPerimeter=0;fillColor=#dae8fc;gradientColor=#7ea6e0;strokeColor=#6c8ebf;sketch=1;curveFitting=1;jiggle=2;" parent="1" source="MCb2UWZOl3pcXyE4nuWZ-4" target="MCb2UWZOl3pcXyE4nuWZ-11" edge="1">
          <mxGeometry width="50" height="50" relative="1" as="geometry">
            <mxPoint x="470" y="450" as="sourcePoint" />
            <mxPoint x="610" y="220" as="targetPoint" />
          </mxGeometry>
        </mxCell>
        <mxCell id="MCb2UWZOl3pcXyE4nuWZ-41" value="" style="endArrow=classic;html=1;rounded=0;fillColor=#dae8fc;gradientColor=#7ea6e0;strokeColor=#6c8ebf;sketch=1;curveFitting=1;jiggle=2;" parent="1" source="MCb2UWZOl3pcXyE4nuWZ-4" target="MCb2UWZOl3pcXyE4nuWZ-8" edge="1">
          <mxGeometry width="50" height="50" relative="1" as="geometry">
            <mxPoint x="320" y="400" as="sourcePoint" />
            <mxPoint x="200" y="590" as="targetPoint" />
          </mxGeometry>
        </mxCell>
        <mxCell id="MCb2UWZOl3pcXyE4nuWZ-42" value="" style="endArrow=classic;html=1;rounded=0;exitX=1;exitY=0.5;exitDx=0;exitDy=0;fillColor=#d5e8d4;gradientColor=#97d077;strokeColor=#82b366;entryX=0;entryY=0.5;entryDx=0;entryDy=0;dashed=1;sketch=1;curveFitting=1;jiggle=2;" parent="1" source="MCb2UWZOl3pcXyE4nuWZ-3" target="MCb2UWZOl3pcXyE4nuWZ-11" edge="1">
          <mxGeometry width="50" height="50" relative="1" as="geometry">
            <mxPoint x="400" y="400" as="sourcePoint" />
            <mxPoint x="600" y="520" as="targetPoint" />
          </mxGeometry>
        </mxCell>
        <mxCell id="MCb2UWZOl3pcXyE4nuWZ-43" value="" style="endArrow=classic;html=1;rounded=0;exitX=1;exitY=0.5;exitDx=0;exitDy=0;entryX=-0.008;entryY=0.65;entryDx=0;entryDy=0;entryPerimeter=0;fillColor=#d5e8d4;gradientColor=#97d077;strokeColor=#82b366;sketch=1;curveFitting=1;jiggle=2;" parent="1" source="MCb2UWZOl3pcXyE4nuWZ-3" target="MCb2UWZOl3pcXyE4nuWZ-9" edge="1">
          <mxGeometry width="50" height="50" relative="1" as="geometry">
            <mxPoint x="400" y="400" as="sourcePoint" />
            <mxPoint x="450" y="350" as="targetPoint" />
          </mxGeometry>
        </mxCell>
        <mxCell id="MCb2UWZOl3pcXyE4nuWZ-44" value="" style="endArrow=classic;html=1;rounded=0;fillColor=#e6d0de;gradientColor=#d5739d;strokeColor=#996185;exitX=1;exitY=0.5;exitDx=0;exitDy=0;entryX=0;entryY=0.75;entryDx=0;entryDy=0;sketch=1;curveFitting=1;jiggle=2;" parent="1" source="MCb2UWZOl3pcXyE4nuWZ-5" target="MCb2UWZOl3pcXyE4nuWZ-9" edge="1">
          <mxGeometry width="50" height="50" relative="1" as="geometry">
            <mxPoint x="400" y="400" as="sourcePoint" />
            <mxPoint x="450" y="350" as="targetPoint" />
          </mxGeometry>
        </mxCell>
        <mxCell id="MCb2UWZOl3pcXyE4nuWZ-46" value="" style="endArrow=classic;html=1;rounded=0;exitX=1;exitY=0.5;exitDx=0;exitDy=0;entryX=1;entryY=0.5;entryDx=0;entryDy=0;sketch=1;curveFitting=1;jiggle=2;fillColor=#f5f5f5;gradientColor=#b3b3b3;strokeColor=#666666;" parent="1" source="MCb2UWZOl3pcXyE4nuWZ-9" target="MCb2UWZOl3pcXyE4nuWZ-11" edge="1">
          <mxGeometry width="50" height="50" relative="1" as="geometry">
            <mxPoint x="400" y="400" as="sourcePoint" />
            <mxPoint x="800" y="560" as="targetPoint" />
            <Array as="points">
              <mxPoint x="736" y="345" />
            </Array>
          </mxGeometry>
        </mxCell>
        <mxCell id="MCb2UWZOl3pcXyE4nuWZ-48" value="" style="endArrow=classic;html=1;rounded=0;exitX=1;exitY=0.5;exitDx=0;exitDy=0;entryX=1;entryY=0.25;entryDx=0;entryDy=0;curved=0;dashed=1;sketch=1;curveFitting=1;jiggle=2;fillColor=#f5f5f5;gradientColor=#b3b3b3;strokeColor=#666666;" parent="1" source="MCb2UWZOl3pcXyE4nuWZ-10" target="MCb2UWZOl3pcXyE4nuWZ-11" edge="1">
          <mxGeometry width="50" height="50" relative="1" as="geometry">
            <mxPoint x="720" y="220" as="sourcePoint" />
            <mxPoint x="720" y="520" as="targetPoint" />
            <Array as="points">
              <mxPoint x="712" y="365" />
            </Array>
          </mxGeometry>
        </mxCell>
        <mxCell id="XMw66bZB9CsVUk_EUJqU-5" value="6. Vuorkokauden&amp;nbsp;&lt;div&gt;kulutus&lt;/div&gt;" style="rounded=1;whiteSpace=wrap;html=1;sketch=1;curveFitting=1;jiggle=2;fillColor=#fad9d5;strokeColor=#ae4132;" parent="1" vertex="1">
          <mxGeometry x="83" y="150" width="130" height="60" as="geometry" />
        </mxCell>
        <mxCell id="XMw66bZB9CsVUk_EUJqU-6" value="" style="endArrow=classic;html=1;rounded=0;fillColor=#ffcd28;gradientColor=#ffa500;strokeColor=#d79b00;entryX=1;entryY=0.5;entryDx=0;entryDy=0;sketch=1;curveFitting=1;jiggle=2;exitX=0.034;exitY=0.4;exitDx=0;exitDy=0;exitPerimeter=0;" parent="1" target="XMw66bZB9CsVUk_EUJqU-5" edge="1" source="MCb2UWZOl3pcXyE4nuWZ-1">
          <mxGeometry width="50" height="50" relative="1" as="geometry">
            <mxPoint x="320" y="150" as="sourcePoint" />
            <mxPoint x="150" y="330" as="targetPoint" />
          </mxGeometry>
        </mxCell>
        <mxCell id="XMw66bZB9CsVUk_EUJqU-7" value="" style="endArrow=classic;html=1;rounded=0;fillColor=#f8cecc;gradientColor=#ea6b66;strokeColor=#b85450;entryX=1;entryY=0.5;entryDx=0;entryDy=0;exitX=0;exitY=0.5;exitDx=0;exitDy=0;sketch=1;curveFitting=1;jiggle=2;" parent="1" source="MCb2UWZOl3pcXyE4nuWZ-2" target="XMw66bZB9CsVUk_EUJqU-5" edge="1">
          <mxGeometry width="50" height="50" relative="1" as="geometry">
            <mxPoint x="350" y="320" as="sourcePoint" />
            <mxPoint x="208" y="354" as="targetPoint" />
          </mxGeometry>
        </mxCell>
        <mxCell id="XMw66bZB9CsVUk_EUJqU-8" value="" style="endArrow=classic;html=1;rounded=0;fillColor=#dae8fc;gradientColor=#7ea6e0;strokeColor=#6c8ebf;entryX=1;entryY=0.5;entryDx=0;entryDy=0;sketch=1;curveFitting=1;jiggle=2;" parent="1" source="MCb2UWZOl3pcXyE4nuWZ-4" target="XMw66bZB9CsVUk_EUJqU-5" edge="1">
          <mxGeometry width="50" height="50" relative="1" as="geometry">
            <mxPoint x="320" y="400" as="sourcePoint" />
            <mxPoint x="210" y="605" as="targetPoint" />
          </mxGeometry>
        </mxCell>
        <mxCell id="XMw66bZB9CsVUk_EUJqU-10" value="" style="endArrow=classic;html=1;rounded=0;fillColor=#d5e8d4;gradientColor=#97d077;strokeColor=#82b366;sketch=1;curveFitting=1;jiggle=2;" parent="1" source="MCb2UWZOl3pcXyE4nuWZ-3" target="XMw66bZB9CsVUk_EUJqU-5" edge="1">
          <mxGeometry width="50" height="50" relative="1" as="geometry">
            <mxPoint x="450" y="530" as="sourcePoint" />
            <mxPoint x="200" y="220" as="targetPoint" />
          </mxGeometry>
        </mxCell>
        <mxCell id="XMw66bZB9CsVUk_EUJqU-11" value="" style="endArrow=classic;html=1;rounded=0;fillColor=#e6d0de;gradientColor=#d5739d;strokeColor=#996185;exitX=0.183;exitY=0.05;exitDx=0;exitDy=0;entryX=0.867;entryY=1.017;entryDx=0;entryDy=0;exitPerimeter=0;entryPerimeter=0;sketch=1;curveFitting=1;jiggle=2;" parent="1" source="MCb2UWZOl3pcXyE4nuWZ-5" target="XMw66bZB9CsVUk_EUJqU-5" edge="1">
          <mxGeometry width="50" height="50" relative="1" as="geometry">
            <mxPoint x="450" y="650" as="sourcePoint" />
            <mxPoint x="580" y="235" as="targetPoint" />
          </mxGeometry>
        </mxCell>
        <mxCell id="XMw66bZB9CsVUk_EUJqU-12" value="" style="endArrow=classic;html=1;rounded=0;fillColor=#d5e8d4;gradientColor=#97d077;strokeColor=#82b366;sketch=1;curveFitting=1;jiggle=2;" parent="1" source="MCb2UWZOl3pcXyE4nuWZ-3" target="MCb2UWZOl3pcXyE4nuWZ-6" edge="1">
          <mxGeometry width="50" height="50" relative="1" as="geometry">
            <mxPoint x="330" y="530" as="sourcePoint" />
            <mxPoint x="167" y="250" as="targetPoint" />
          </mxGeometry>
        </mxCell>
        <mxCell id="XMw66bZB9CsVUk_EUJqU-13" value="" style="endArrow=classic;html=1;rounded=0;fillColor=#e6d0de;gradientColor=#d5739d;strokeColor=#996185;exitX=0.017;exitY=0.367;exitDx=0;exitDy=0;entryX=1;entryY=0.5;entryDx=0;entryDy=0;exitPerimeter=0;sketch=1;curveFitting=1;jiggle=2;" parent="1" source="MCb2UWZOl3pcXyE4nuWZ-5" target="MCb2UWZOl3pcXyE4nuWZ-7" edge="1">
          <mxGeometry width="50" height="50" relative="1" as="geometry">
            <mxPoint x="352" y="623" as="sourcePoint" />
            <mxPoint x="194" y="251" as="targetPoint" />
          </mxGeometry>
        </mxCell>
        <mxCell id="XMw66bZB9CsVUk_EUJqU-14" value="" style="endArrow=classic;html=1;rounded=0;exitX=0.5;exitY=1;exitDx=0;exitDy=0;sketch=1;curveFitting=1;jiggle=2;fillColor=#f5f5f5;gradientColor=#b3b3b3;strokeColor=#666666;" parent="1" source="MCb2UWZOl3pcXyE4nuWZ-6" target="MCb2UWZOl3pcXyE4nuWZ-7" edge="1">
          <mxGeometry width="50" height="50" relative="1" as="geometry">
            <mxPoint x="700" y="340" as="sourcePoint" />
            <mxPoint x="700" y="455" as="targetPoint" />
            <Array as="points">
              <mxPoint x="123" y="397" />
            </Array>
          </mxGeometry>
        </mxCell>
        <mxCell id="XMw66bZB9CsVUk_EUJqU-15" value="" style="endArrow=classic;html=1;rounded=0;fillColor=#e6d0de;gradientColor=#d5739d;strokeColor=#996185;entryX=1;entryY=0.5;entryDx=0;entryDy=0;sketch=1;curveFitting=1;jiggle=2;" parent="1" source="MCb2UWZOl3pcXyE4nuWZ-5" target="MCb2UWZOl3pcXyE4nuWZ-8" edge="1">
          <mxGeometry width="50" height="50" relative="1" as="geometry">
            <mxPoint x="330" y="650" as="sourcePoint" />
            <mxPoint x="210" y="490" as="targetPoint" />
          </mxGeometry>
        </mxCell>
        <mxCell id="XMw66bZB9CsVUk_EUJqU-16" value="" style="endArrow=classic;html=1;rounded=0;entryX=0.417;entryY=0.05;entryDx=0;entryDy=0;exitX=0.5;exitY=1;exitDx=0;exitDy=0;entryPerimeter=0;fillColor=#dae8fc;gradientColor=#7ea6e0;strokeColor=#6c8ebf;sketch=1;curveFitting=1;jiggle=2;" parent="1" source="MCb2UWZOl3pcXyE4nuWZ-4" target="MCb2UWZOl3pcXyE4nuWZ-5" edge="1">
          <mxGeometry width="50" height="50" relative="1" as="geometry">
            <mxPoint x="450" y="410" as="sourcePoint" />
            <mxPoint x="578" y="477" as="targetPoint" />
          </mxGeometry>
        </mxCell>
        <mxCell id="XMw66bZB9CsVUk_EUJqU-17" value="" style="endArrow=classic;html=1;rounded=0;fillColor=#e6d0de;gradientColor=#d5739d;strokeColor=#996185;exitX=1.017;exitY=0.65;exitDx=0;exitDy=0;entryX=0;entryY=0.5;entryDx=0;entryDy=0;exitPerimeter=0;sketch=1;curveFitting=1;jiggle=2;" parent="1" source="MCb2UWZOl3pcXyE4nuWZ-5" target="MCb2UWZOl3pcXyE4nuWZ-11" edge="1">
          <mxGeometry width="50" height="50" relative="1" as="geometry">
            <mxPoint x="450" y="520" as="sourcePoint" />
            <mxPoint x="580" y="225" as="targetPoint" />
          </mxGeometry>
        </mxCell>
        <mxCell id="XMw66bZB9CsVUk_EUJqU-27" value="" style="endArrow=classic;html=1;rounded=0;fillColor=#d5e8d4;gradientColor=#97d077;strokeColor=#82b366;sketch=1;curveFitting=1;jiggle=2;exitX=0.425;exitY=-0.067;exitDx=0;exitDy=0;exitPerimeter=0;entryX=0.35;entryY=1;entryDx=0;entryDy=0;entryPerimeter=0;" parent="1" target="MCb2UWZOl3pcXyE4nuWZ-5" edge="1" source="MCb2UWZOl3pcXyE4nuWZ-3">
          <mxGeometry width="50" height="50" relative="1" as="geometry">
            <mxPoint x="365" y="620" as="sourcePoint" />
            <mxPoint x="384" y="509" as="targetPoint" />
          </mxGeometry>
        </mxCell>
        <mxCell id="XMw66bZB9CsVUk_EUJqU-31" value="&lt;div style=&quot;font-size: 14px;&quot; align=&quot;center&quot;&gt;&lt;font face=&quot;Comic Sans MS&quot; style=&quot;font-size: 14px; background-color: rgb(246, 245, 244);&quot;&gt;1. Naisia/miehiä &lt;br&gt;&lt;/font&gt;&lt;/div&gt;&lt;div style=&quot;font-size: 14px;&quot; align=&quot;center&quot;&gt;&lt;font face=&quot;awCJcI4NEBwwSpxG07kG&quot; style=&quot;font-size: 14px; background-color: rgb(246, 245, 244);&quot;&gt;50/50&lt;br&gt;&lt;/font&gt;&lt;/div&gt;" style="text;strokeColor=none;fillColor=none;html=1;align=center;verticalAlign=middle;whiteSpace=wrap;rounded=0;fontSize=16;sketch=1;curveFitting=1;jiggle=2;" parent="1" vertex="1">
          <mxGeometry y="92" width="135.46" height="32" as="geometry" />
        </mxCell>
        <mxCell id="XMw66bZB9CsVUk_EUJqU-32" value="&lt;font style=&quot;font-size: 14px; background-color: rgb(246, 245, 244);&quot; face=&quot;Comic Sans MS&quot;&gt;2.Satunnainen luku 18-65&lt;/font&gt;" style="text;strokeColor=none;fillColor=none;html=1;align=center;verticalAlign=middle;whiteSpace=wrap;rounded=0;fontSize=16;sketch=1;curveFitting=1;jiggle=2;" parent="1" vertex="1">
          <mxGeometry x="194" y="40" width="60" height="30" as="geometry" />
        </mxCell>
        <mxCell id="XMw66bZB9CsVUk_EUJqU-33" value="&lt;div style=&quot;font-size: 14px;&quot;&gt;&lt;font style=&quot;font-size: 14px; background-color: rgb(246, 245, 244);&quot; face=&quot;Comic Sans MS&quot;&gt;3. Globaalista normaalijakaumasta&lt;/font&gt;&lt;/div&gt;&lt;div style=&quot;font-size: 14px;&quot;&gt;&lt;font style=&quot;font-size: 14px; background-color: rgb(246, 245, 244);&quot; face=&quot;pNn6fP_LAzWejTQgjA9w&quot;&gt;N: (164.7 , 7.08&lt;/font&gt;&lt;/div&gt;&lt;div style=&quot;font-size: 14px;&quot;&gt;&lt;font style=&quot;font-size: 14px; background-color: rgb(246, 245, 244);&quot; face=&quot;pNn6fP_LAzWejTQgjA9w&quot;&gt;M: (178.4 , 7.59)&lt;br&gt;&lt;/font&gt;&lt;/div&gt;" style="text;strokeColor=none;fillColor=none;html=1;align=center;verticalAlign=middle;whiteSpace=wrap;rounded=0;fontSize=16;sketch=1;curveFitting=1;jiggle=2;" parent="1" vertex="1">
          <mxGeometry x="352" y="11" width="60" height="18" as="geometry" />
        </mxCell>
        <mxCell id="XMw66bZB9CsVUk_EUJqU-34" style="edgeStyle=none;curved=1;rounded=0;orthogonalLoop=1;jettySize=auto;html=1;exitX=0.25;exitY=0;exitDx=0;exitDy=0;fontSize=12;startSize=8;endSize=8;sketch=1;curveFitting=1;jiggle=2;" parent="1" source="XMw66bZB9CsVUk_EUJqU-33" target="XMw66bZB9CsVUk_EUJqU-33" edge="1">
          <mxGeometry relative="1" as="geometry" />
        </mxCell>
        <mxCell id="XMw66bZB9CsVUk_EUJqU-35" value="&lt;font style=&quot;font-size: 14px;&quot; face=&quot;Comic Sans MS&quot;&gt;4. Laskettu pituuden ja BMI avulla&lt;/font&gt;" style="text;strokeColor=none;fillColor=none;html=1;align=center;verticalAlign=middle;whiteSpace=wrap;rounded=0;fontSize=16;sketch=1;curveFitting=1;jiggle=2;" parent="1" vertex="1">
          <mxGeometry x="465" y="22" width="150" height="70" as="geometry" />
        </mxCell>
        <mxCell id="XMw66bZB9CsVUk_EUJqU-36" value="&lt;div style=&quot;font-size: 14px;&quot;&gt;&lt;font style=&quot;font-size: 14px;&quot; face=&quot;Comic Sans MS&quot;&gt;5. Mielivaltaisesti valittu normaalijakaumasta&lt;/font&gt;&lt;/div&gt;&lt;div style=&quot;font-size: 14px;&quot;&gt;&lt;font style=&quot;font-size: 14px;&quot; face=&quot;46ao-vSiXBKeP1rcRNqy&quot;&gt;&lt;font style=&quot;font-size: 14px;&quot;&gt;(28 , 6)&lt;/font&gt;&lt;br&gt;&lt;/font&gt; &lt;/div&gt;" style="text;strokeColor=none;fillColor=none;html=1;align=center;verticalAlign=middle;whiteSpace=wrap;rounded=0;fontSize=16;sketch=1;curveFitting=1;jiggle=2;" parent="1" vertex="1">
          <mxGeometry x="632" y="63" width="120" height="110" as="geometry" />
        </mxCell>
        <mxCell id="XMw66bZB9CsVUk_EUJqU-37" value="&lt;div style=&quot;font-size: 14px;&quot;&gt;&lt;font face=&quot;Comic Sans MS&quot; style=&quot;font-size: 14px;&quot;&gt;6. Harris-Benedict kaavalla (sukupuoli, paino, pituus, ikä).&lt;/font&gt;&lt;/div&gt;&lt;div style=&quot;font-size: 14px;&quot;&gt;&lt;font face=&quot;wNwmvrz2paqFnFBtK1mF&quot; style=&quot;font-size: 14px;&quot;&gt;&lt;font style=&quot;font-size: 14px;&quot;&gt;Saatu perusaineenvaihdunta kerrotaan arvolla 1.25.&lt;/font&gt;&lt;/font&gt;&lt;font face=&quot;wNwmvrz2paqFnFBtK1mF&quot; style=&quot;font-size: 14px;&quot;&gt;&lt;br&gt;&lt;/font&gt;&lt;/div&gt;" style="text;strokeColor=none;fillColor=none;html=1;align=center;verticalAlign=middle;whiteSpace=wrap;rounded=0;fontSize=16;sketch=1;curveFitting=1;jiggle=2;" parent="1" vertex="1">
          <mxGeometry x="-189.78" y="180" width="229.57" height="70" as="geometry" />
        </mxCell>
        <mxCell id="XMw66bZB9CsVUk_EUJqU-38" value="&lt;font style=&quot;font-size: 14px;&quot; face=&quot;Comic Sans MS&quot;&gt;7. Wikpediasta kaava (bmi, ikä, sukupuoli). Lisätty kohinaa N~(0,4)&lt;/font&gt;" style="text;strokeColor=none;fillColor=none;html=1;align=center;verticalAlign=middle;whiteSpace=wrap;rounded=0;fontSize=16;sketch=1;curveFitting=1;jiggle=2;" parent="1" vertex="1">
          <mxGeometry x="-170" y="297" width="170" height="60" as="geometry" />
        </mxCell>
        <mxCell id="XMw66bZB9CsVUk_EUJqU-39" value="&lt;font style=&quot;font-size: 14px;&quot; face=&quot;Comic Sans MS&quot;&gt;8. Rasvamassa / Paino&lt;/font&gt;" style="text;strokeColor=none;fillColor=none;html=1;align=center;verticalAlign=middle;whiteSpace=wrap;rounded=0;fontSize=16;sketch=1;curveFitting=1;jiggle=2;" parent="1" vertex="1">
          <mxGeometry x="-187.00000000000003" y="415" width="190" height="15" as="geometry" />
        </mxCell>
        <mxCell id="XMw66bZB9CsVUk_EUJqU-40" style="edgeStyle=none;curved=1;rounded=0;orthogonalLoop=1;jettySize=auto;html=1;exitX=0.5;exitY=1;exitDx=0;exitDy=0;fontSize=12;startSize=8;endSize=8;sketch=1;curveFitting=1;jiggle=2;" parent="1" source="XMw66bZB9CsVUk_EUJqU-38" target="XMw66bZB9CsVUk_EUJqU-38" edge="1">
          <mxGeometry relative="1" as="geometry" />
        </mxCell>
        <mxCell id="XMw66bZB9CsVUk_EUJqU-42" value="&lt;div style=&quot;font-size: 15px;&quot;&gt;&lt;font face=&quot;Comic Sans MS&quot; style=&quot;font-size: 15px;&quot;&gt;9. Viitearvon laskentakaava (sukupuoli, paino, pituus, ikä).&lt;/font&gt;&lt;/div&gt;&lt;div style=&quot;font-size: 15px;&quot;&gt;&lt;font face=&quot;AE_S2cJOfs9jfhsZOwB8&quot; style=&quot;font-size: 15px;&quot;&gt;&lt;font style=&quot;font-size: 15px;&quot;&gt;Lisätty kohinaa N~(0,3)&lt;/font&gt;&lt;/font&gt;&lt;font face=&quot;AE_S2cJOfs9jfhsZOwB8&quot; style=&quot;font-size: 15px;&quot;&gt;&lt;br&gt;&lt;/font&gt;&lt;/div&gt;" style="text;strokeColor=none;fillColor=none;html=1;align=center;verticalAlign=middle;whiteSpace=wrap;rounded=0;fontSize=16;sketch=1;curveFitting=1;jiggle=2;" parent="1" vertex="1">
          <mxGeometry x="-187" y="506" width="220" height="70" as="geometry" />
        </mxCell>
        <mxCell id="XMw66bZB9CsVUk_EUJqU-43" value="&lt;div style=&quot;font-size: 14px;&quot;&gt;&lt;font style=&quot;font-size: 14px;&quot; face=&quot;Comic Sans MS&quot;&gt;10. Viitearvon tulos (sukupuoli, pituus, ikä, paino).&lt;/font&gt;&lt;/div&gt;&lt;div style=&quot;font-size: 14px;&quot;&gt;&lt;font style=&quot;font-size: 14px;&quot; face=&quot;QSWlMORBqcQQZ04T6Ngx&quot;&gt;Lisätty arvo väliltä (-170.....170)&lt;br&gt;&lt;/font&gt;&lt;/div&gt;" style="text;strokeColor=none;fillColor=none;html=1;align=center;verticalAlign=middle;whiteSpace=wrap;rounded=0;fontSize=16;sketch=1;curveFitting=1;jiggle=2;" parent="1" vertex="1">
          <mxGeometry x="730" y="169" width="240" height="60" as="geometry" />
        </mxCell>
        <mxCell id="XMw66bZB9CsVUk_EUJqU-44" value="&lt;font style=&quot;font-size: 14px;&quot; face=&quot;Comic Sans MS&quot;&gt;11. 220 - ikä * uniform~(0.6 , 0.9)&lt;/font&gt;" style="text;strokeColor=none;fillColor=none;html=1;align=center;verticalAlign=middle;whiteSpace=wrap;rounded=0;fontSize=16;sketch=1;curveFitting=1;jiggle=2;" parent="1" vertex="1">
          <mxGeometry x="752" y="282" width="260" height="10" as="geometry" />
        </mxCell>
        <mxCell id="XMw66bZB9CsVUk_EUJqU-45" value="&lt;font style=&quot;font-size: 14px;&quot; face=&quot;Comic Sans MS&quot;&gt;12. Kävelytestin mukaan arvioitu vo2max (sukupuoli, paino, kävelymatka, ikä, bmi*, syke*)&lt;/font&gt;" style="text;strokeColor=none;fillColor=none;html=1;align=center;verticalAlign=middle;whiteSpace=wrap;rounded=0;fontSize=16;sketch=1;curveFitting=1;jiggle=2;" parent="1" vertex="1">
          <mxGeometry x="772" y="397" width="190" height="20" as="geometry" />
        </mxCell>
        <mxCell id="XMw66bZB9CsVUk_EUJqU-46" value="&lt;font style=&quot;font-size: 9px;&quot; face=&quot;Comic Sans MS&quot;&gt;*vain miehillä&lt;/font&gt;" style="text;strokeColor=none;fillColor=none;html=1;align=center;verticalAlign=middle;whiteSpace=wrap;rounded=0;fontSize=16;sketch=1;curveFitting=1;jiggle=2;" parent="1" vertex="1">
          <mxGeometry x="898" y="448" width="97" height="23" as="geometry" />
        </mxCell>
        <mxCell id="XMw66bZB9CsVUk_EUJqU-47" value="&lt;font style=&quot;font-size: 14px;&quot; face=&quot;Comic Sans MS&quot;&gt;13.Satunnainen arvo väliltä 3-45. TARVITSEE RIIPPUVUUDEN!&lt;/font&gt;" style="text;strokeColor=none;fillColor=none;html=1;align=center;verticalAlign=middle;whiteSpace=wrap;rounded=0;fontSize=16;sketch=1;curveFitting=1;jiggle=2;" parent="1" vertex="1">
          <mxGeometry x="743" y="501" width="260" height="50" as="geometry" />
        </mxCell>
        <mxCell id="XMw66bZB9CsVUk_EUJqU-48" style="edgeStyle=none;curved=1;rounded=0;sketch=1;hachureGap=4;jiggle=2;curveFitting=1;orthogonalLoop=1;jettySize=auto;html=1;exitX=0.5;exitY=0;exitDx=0;exitDy=0;fontFamily=Architects Daughter;fontSource=https%3A%2F%2Ffonts.googleapis.com%2Fcss%3Ffamily%3DArchitects%2BDaughter;fontSize=12;startSize=8;endSize=8;" parent="1" source="XMw66bZB9CsVUk_EUJqU-37" target="XMw66bZB9CsVUk_EUJqU-37" edge="1">
          <mxGeometry relative="1" as="geometry" />
        </mxCell>
        <mxCell id="XMw66bZB9CsVUk_EUJqU-49" style="edgeStyle=none;curved=1;rounded=0;sketch=1;hachureGap=4;jiggle=2;curveFitting=1;orthogonalLoop=1;jettySize=auto;html=1;exitX=0;exitY=0.5;exitDx=0;exitDy=0;fontFamily=Architects Daughter;fontSource=https%3A%2F%2Ffonts.googleapis.com%2Fcss%3Ffamily%3DArchitects%2BDaughter;fontSize=12;startSize=8;endSize=8;" parent="1" source="XMw66bZB9CsVUk_EUJqU-33" target="XMw66bZB9CsVUk_EUJqU-33" edge="1">
          <mxGeometry relative="1" as="geometry" />
        </mxCell>
      </root>
    </mxGraphModel>
  </diagram>
</mxfile>
